<?xml version="1.0" encoding="UTF-8" standalone="no"?>
<!-- Created with Inkscape (http://www.inkscape.org/) -->

<svg
   width="210mm"
   height="297mm"
   viewBox="0 0 210 297"
   version="1.1"
   id="svg8"
   inkscape:version="1.3.2 (091e20e, 2023-11-25, custom)"
   sodipodi:docname="Neuri_logo.svg"
   xmlns:inkscape="http://www.inkscape.org/namespaces/inkscape"
   xmlns:sodipodi="http://sodipodi.sourceforge.net/DTD/sodipodi-0.dtd"
   xmlns="http://www.w3.org/2000/svg"
   xmlns:svg="http://www.w3.org/2000/svg"
   xmlns:rdf="http://www.w3.org/1999/02/22-rdf-syntax-ns#"
   xmlns:cc="http://creativecommons.org/ns#"
   xmlns:dc="http://purl.org/dc/elements/1.1/">
  <defs
     id="defs2" />
  <sodipodi:namedview
     id="base"
     pagecolor="#ffffff"
     bordercolor="#666666"
     borderopacity="1.0"
     inkscape:pageopacity="0.0"
     inkscape:pageshadow="2"
     inkscape:zoom="0.98994949"
     inkscape:cx="157.07872"
     inkscape:cy="333.85542"
     inkscape:document-units="mm"
     inkscape:current-layer="layer1"
     showgrid="false"
     inkscape:window-width="1920"
     inkscape:window-height="1051"
     inkscape:window-x="1911"
     inkscape:window-y="-9"
     inkscape:window-maximized="1"
     inkscape:showpageshadow="2"
     inkscape:pagecheckerboard="0"
     inkscape:deskcolor="#d1d1d1" />
  <metadata
     id="metadata5">
    <rdf:RDF>
      <cc:Work
         rdf:about="">
        <dc:format>image/svg+xml</dc:format>
        <dc:type
           rdf:resource="http://purl.org/dc/dcmitype/StillImage" />
        <dc:title />
      </cc:Work>
    </rdf:RDF>
  </metadata>
  <g
     inkscape:label="Layer 1"
     inkscape:groupmode="layer"
     id="layer1">
    <text
       xml:space="preserve"
       style="font-style:normal;font-variant:normal;font-weight:normal;font-stretch:normal;font-size:3.175px;line-height:1.25;font-family:Arial;-inkscape-font-specification:'Arial, Normal';font-variant-ligatures:normal;font-variant-caps:normal;font-variant-numeric:normal;text-align:start;letter-spacing:0px;word-spacing:0px;writing-mode:lr-tb;text-anchor:start;fill:#070763;fill-opacity:1;stroke:#070763;stroke-width:0.565;stroke-miterlimit:4;stroke-dasharray:none;stroke-opacity:1"
       x="81.935783"
       y="73.568825"
       id="text817"
       inkscape:export-xdpi="150"
       inkscape:export-ydpi="150"
       inkscape:export-filename="Neuri_logo.png"><tspan
         sodipodi:role="line"
         id="tspan815"
         x="81.935783"
         y="73.568825"
         style="font-style:normal;font-variant:normal;font-weight:normal;font-stretch:normal;font-size:25.4px;font-family:Calibri;-inkscape-font-specification:Calibri;fill:#070763;fill-opacity:1;stroke:#070763;stroke-width:0.565;stroke-miterlimit:4;stroke-dasharray:none;stroke-opacity:1">euriGUI</tspan></text>
    <g
       id="g40"
       transform="matrix(0.09027407,0,0,-0.09027407,83.041592,48.526389)"
       inkscape:export-xdpi="96"
       inkscape:export-ydpi="96">
      <path
         d="m 0,0 c 0,0 43.309,82.071 142.954,82.071 99.645,2.127 126.84,-64.823 126.84,-64.823 3.742,-9.87 14.536,-15.384 24.658,-12.08 10.751,3.448 16.418,15.208 12.423,25.768 -0.931,2.521 -9.807,25.271 -34.642,47.632 C 249.576,98.97 208.594,123.417 142.12,121.589 26.395,118.407 -28.997,42.412 -46.458,0.395 c -17.462,-42.017 -19.165,-76.127 -20.73,-97.1 -1.565,-20.973 -1.553,-45.485 -1.553,-45.485 -1.145,-27.083 -2.225,-52.663 -6.755,-70.181 -4.775,-18.468 -10.703,-19.068 -13.887,-19.391 -27.958,-3.898 -38.492,70.791 -45.491,100.958 -7.53,36.942 -15.317,75.142 -30.081,104.484 -19.302,38.364 -47.839,55.487 -84.824,50.903 -101.184,-11.534 -64.486,-208.864 -49.205,-270.918 2.662,-10.585 13.402,-17.011 23.986,-14.347 10.586,2.661 17.009,13.4 14.348,23.986 -10.241,36.213 -32.532,172.538 -3.625,209.761 5.121,7.475 11.092,11.267 19.362,12.292 41.728,5.177 55.348,-45.755 71.309,-124.056 6.662,-32.68 12.953,-63.548 23.704,-87.463 16.404,-36.494 39.728,-45.242 58.312,-45.242 2.13,0 4.199,0.116 6.186,0.317 C 4.977,-261.464 -56.187,-87.068 0,0"
         style="fill:#00ffff;fill-opacity:1;fill-rule:nonzero;stroke:none"
         id="path42"
         inkscape:connector-curvature="0" />
    </g>
  </g>
</svg>
